<svg xmlns="http://www.w3.org/2000/svg" width="94" height="67.1" viewBox="0 0 94 67.1"><defs><style>.a{fill:#707070;opacity:0.54;}.b{fill:#fff;stroke:rgba(112,112,112,0.56);}.c{stroke:none;}.d{fill:none;}</style></defs><g transform="translate(-2177 -2200.9)"><path class="a" d="M14.636,30.391a9.584,9.584,0,0,0,9.757-9.383,9.584,9.584,0,0,0-9.757-9.383,9.584,9.584,0,0,0-9.757,9.383A9.584,9.584,0,0,0,14.636,30.391Zm34.151,4.691c.29,0,.564-.073.854-.088.591-1.486,1.506-5.528,5.039-7.8s7.972-1.911,9.094-1.278c.122-.073.244-.132.366-.205a15.718,15.718,0,0,0,1.708-7.037c0-9.075-7.638-16.42-17.075-16.42s-17.06,7.33-17.06,16.405S39.35,35.082,48.787,35.082ZM64.825,63.6c-.351-.176-.7-.381-1.037-.572-1.183.666-8.468-6.547-8.614-6.79-2.7-4.5-2.317-11.11-2.18-11.2q-.023-.572,0-1.144l-1.2-.674A6.163,6.163,0,0,1,50.3,42.031c-.5.029-.991.088-1.494.088a24.859,24.859,0,0,1-10.443-2.346H37.093c-9.712,0-17.578,7.565-17.578,16.889v4.222a7.184,7.184,0,0,0,7.318,7.037H65.771a5.492,5.492,0,0,1-.945-2.976ZM26.391,37.809a9.929,9.929,0,0,0-6.876-2.727H9.757A9.584,9.584,0,0,0,0,44.465v4.691a4.783,4.783,0,0,0,4.879,4.691H14.926A21.522,21.522,0,0,1,26.391,37.809Z" transform="translate(2177 2198.643)"/><g class="b" transform="translate(2222 2220)"><ellipse class="c" cx="24.5" cy="24" rx="24.5" ry="24"/><ellipse class="d" cx="24.5" cy="24" rx="24" ry="23.5"/></g><path class="a" d="M25.91,16.875H19.125V10.09a1.125,1.125,0,0,0-2.25,0v6.785H10.09a1.125,1.125,0,0,0,0,2.25h6.785V25.91a1.125,1.125,0,0,0,2.25,0V19.125H25.91a1.125,1.125,0,0,0,0-2.25Z" transform="translate(2228.742 2226)"/></g></svg>